<?xml version="1.0" encoding="UTF-8"?>
<svg version="1.1" viewBox="0 0 2000 2000" width="500" height="500" xmlns="http://www.w3.org/2000/svg">
<path transform="translate(866,471)" d="m0 0h14l21 2 12 3 8 5 4 5 5 11 4 20 4 29 5 21 7 39 6 44 2 15 1 18-1 64-6 11-12 14-7 7-8 7-19 19-8 7-25 25-8 7-13 13-6 7-7 6-5 6-8 7-17 17h-2l-2 4-22 22-7 8-8 8-7 8-23 23-13 10-11 5-16 4h-21l-6-3-8-8-9-14-7-16-4-14-1-7-2-35-5-37-7-49-1-22-3-11-5-13-2-10v-28l5-10 8-12 20-26 9-10 9-11 15-16 48-48 8-7 13-11 12-11 11-9 7-7 8-7 34-34 7-8 7-7 7-8 10-9 4-2z" fill="#A1B357"/>
<path transform="translate(994,819)" d="m0 0h7l36 10 39 12 41 12 48 13 42 11 40 11 25 7 30 8 22 9 8 6 6 9 5 15v18l-5 12-7 10-8 8-13 10-16 13-10 8-10 9-14 11-13 12-30 23-16 13-10 9-13 11-16 12-17 12-4 2h-12l-12-3-10-4-23-6-30-10-25-8-48-15-48-13-44-13-46-11-15-6-10-6-6-5-2-9-2-13-4-17-3-5-10-5-2-4 7-8 7-7 8-7 8-8 10-8 12-10 18-13 14-11 13-11 13-10 21-16 13-11 14-11 10-9 13-10 11-7z" fill="#D23E38"/>
<path transform="translate(996,391)" d="m0 0h11l19 3 29 9 24 9 31 12 53 21 34 14 20 8 22 8 6 4 6 19 8 36 8 30 13 50 10 38 10 36 12 44 9 36 8 31 1 8-3 4-14 6-5 8-9 17-7 9-6 3-24-7-19-8-23-9-30-11-15-6-78-29-25-9-16-8-7-8-6-13-4-13-8-36-6-26-8-29-4-16-4-19-8-31-11-41-7-28-8-30-11-44 1-9 7-12 8-10 7-6 6-4z" fill="#408ABF"/>
<path transform="translate(994,819)" d="m0 0h7l36 10 39 12 41 12 48 13 42 11 40 11 25 7 30 8 22 9 8 6 6 9 5 15v18l-5 12-7 10-8 8-13 10-16 13-10 8-10 9-14 11-13 12-30 23-16 13-10 9-13 11-16 12-17 12-4 2h-12l-12-3-10-4-23-6-30-10-25-8-48-15-48-13-44-13-46-11-15-6-10-6-6-5-2-9-2-13-4-17-3-5-10-5-2-4 7-8 7-7 4-2-1 5-3 4v6l6 2 2 3 4 9 5 10 1 13 1 7 4 5 2 4 5 3 2 3 8 3 7 3 11 2 9 1h8l4 2 12 2 5 2h7l7 3 12 3 9 3 3 2 8 1 2 1 4 1 7 2 8 1v2l7 1 1 3 5 1 9 2 5 2h2v2l7 1 2 2 13 5v2l11 3 42 14 24 7 26 8 15 5 3-1 5-1 2-4 8-10h4v-2l6-3 7-6h3l1-3 9-6 2-3 9-7 6-5h2v-2h2v-2l7-6 2-4 5-1v-2l4-1v-3l5-5 4-1 8-6 5-1 1-3 7-6h2l1-3h3v-2h3l2-6h3v-3h3l4-10h2v-2h2l2-5h2l1-4 3-1v-2l10-8 13-11 5-4 5-6h2l1-6 2-6-9-3-11-7-12-4-1-1-12-2-9-4-21-5-6-1-4-3-7-1-3-3-5-1-16-3-5-2-12-2-4-3-7-2-8-1v-2l-11-1-15-4-9-3-7-3-13-3h-4v-2h-9l-10-4-9-1v-2l-10-1-6-3v-2l-4 1-3-1-8-1-13-5-5-3-3-7-3-6-3-5-2-10-3-5-11-4v-2l-8-2v-2l-11 2-7 3-16 9-10 7-9 6-9 7-3 3-11 9-4 2v2l-4 3h-3l-1 3-8 5h-3l1-3 16-12 13-11 14-11 10-9 13-10 11-7z" fill="#A22527"/>
<path transform="translate(866,471)" d="m0 0h14l21 2 12 3 8 5 4 5 5 11 4 20 4 29 5 21 7 39 6 44 2 15 1 18-1 38h-2l-3-7v-9l-5 2-2-1 2 10 1 15-5 8-7 7-9 4-4 1h-7l-5-3-4-5-5-17-6-35-9-61-9-60-8-52-6-36-1-3-5 1v2l-5 1-4 2-1 3-7 6-6 5-1 2h-3l-1 4-7 6-1 2h-2v2l-7 6h-2l-1 4h-2l-1 4-7 6-1 2-3 1-2 3h-2l-1 3-7 6-2 3h-2l-2 4-4 2-7 8-13 13-7 8h-2v2l-7 6-12 12h-2v2l-6 4-5 5-12 11-5 6-8 7-4 5-8 7-11 11-6 7-7 6-4 4-4 5-3 1 2-4 10-13 10-11 7-8 11-12 49-49 8-7 13-11 12-11 11-9 7-7 8-7 34-34 7-8 7-7 7-8 10-9 4-2z" fill="#E5DCB6"/>
<path transform="translate(903,751)" d="m0 0 4 1 4 6 12 1 13 2 6-1 1 2-1 3h-2l-2 4-6 9-6 7-20 20-8 7-25 25-8 7-13 13-6 7-7 6-5 6-8 7-17 17h-2l-2 4-22 22-7 8-8 8-7 8-23 23-13 10-11 5-16 4h-21l-6-3-8-8-9-14-6-13 1-3 5 3 2 6 2 3v6l5 2 3 3 4 1v2l3-1h3l1-5-1-5 5-5 5-1 2-4 4-3h2l1-3 3-3h2l1-5 6-2 1-3 11-9 4-6 4-3 1-3h2l1-3 10-10h2l2-4h2l2-5 4-1 2-4h2l1-3h2v-2l3-3h2v-2h2l2-4 8-8 1-2h2v-2h3v-2h2l2-4 10-9 7-8 6-8 5-3 13-13 6-7 5-4 9-9h2l2-4 5-4 6-7h2v-2l4-1v-2h2v-2h2v-2l7-6h2v-2h3v-2l9-5z" fill="#7E893B"/>
<path transform="translate(987,396)" d="m0 0h5l2 2 9 27 7 23 7 25 7 22 3 11 3 10 5 15 6 23 3 9 1 6 1 4 6 22 5 18 3 18 3 12 2 7 6 24 3 8 3 12 4 15 5 6v2h-21l-5 3-3 6-5 1-2-4-4-4-1-5-4-2-5-17-1-7-3-3h2v-2h-2l-2-13v-3h-2v-8h-2l-2-9-1-6-3-15-4-9-2-6-3-16-1-1-2-10-5-19-1-9v-4h-2l-1-7-2-7v-8h-2l-5-20-1-7-3-8-1-5-5-12-4-18-4-12-2-10-1-12v-7l3-10 8-10z" fill="#2F709D"/>
<path transform="translate(990,836)" d="m0 0h9l11 4 7 10v12l-4 10-2 3h-2l-2 4-6 5h-2v2l-11 9-12 9-3 3h-2l-1 3-16 12h-2v2l-14 11-3 1v2l-12 9-13 10-6 5-6 4-11 9-3 1v2l-4 1-1 3-17 13-7 6h-3v2l-13 8-5 2-5-1-3-5-2-15 2-13v-7l-1-4 2-1 1-3 2-1 2-4 2-1 3-5h2l2-4h2l1-3 8-7 11-10 14-11 9-7 7-8h2v-2l11-7h2v-2l11-8 6-5h2v-2l10-8 4-4 6-4 5-2v-2l6-3 15-10 10-6z" fill="#F1C0AD"/>
<path transform="translate(1032,697)" d="m0 0 2 4 5 21 4 9 6 8 3 1v2l6-1 3-3 6-16 5-4 13 1 21 6 23 8 11 5 25 9 28 11 24 10 25 10 28 11 16 7 15 6 14 4v3l-12 6-5 6h-2l-2 4-11 8-2 1h-7l-26-7-27-9-13-4-15-6-16-6-16-5-11-5-43-16-17-6-26-13-6-4-4-2h-9l-6-18-7-31z" fill="#DDE2E1"/>
<path transform="translate(964,258)" d="m0 0h83l20 2 18 3 28 8 30 9 26 9 37 16 16 8 24 13 16 10 18 11 14 10 12 8 14 11 10 9 8 7 29 29 7 8 9 10 11 14 14 19 10 15 13 22 9 16 8 16 8 17 14 36 8 28 9 37 4 20v7h-1l-5-21-5-15-10-39-7-19-13-28-11-23-12-21-14-23-13-18-13-17-13-16-10-13-13-16-19-19-11-9-15-12-20-15-36-24-15-9-18-10-23-11-17-9-25-9-36-12-19-5-21-4-19-2-19-1h-90l-35 3-46 7-30 7-31 11-20 9-33 16-22 12-22 14-36 26-14 11-14 12-6 6h-2v2l-8 7-20 20-9 11-11 13-22 33-11 18-13 23-15 30-17 38-10 32-2 6-1-3 8-31 8-21 12-27 19-38 14-24 16-24 12-17 11-13 8-10 11-12 18-18 11-9 9-8 16-12 15-11 16-11 19-12 15-9 21-12 29-14 16-7 36-12 26-7 31-6 31-4 19-2z" fill="#7A3B41"/>
<path transform="translate(1244,888)" d="m0 0 10 2 29 8 19 5 22 9 8 6 6 9 5 15v18l-5 12-7 10-8 8-13 10-16 13-10 8-10 9-14 11-13 12-30 23-16 13-10 9-13 11-16 12-17 12-4 2h-12l-12-3-10-4-23-6-30-10-25-8-48-15-48-13-44-13-46-11-15-6-10-6-6-5-2-9-2-13-4-17-3-5-10-5-2-4 7-8 7-7 4-2-1 5-3 4v6l6 2 2 3 4 9 5 10 1 13 1 7 4 5 2 4 5 3 2 3 8 3 7 3 11 2 9 1h8l4 2 12 2 5 2h7l7 3 12 3 9 3 3 2 8 1 2 1 4 1 7 2 8 1v2l7 1 1 3 5 1 9 2 5 2h2v2l7 1 2 2 13 5v2l11 3 42 14 24 7 26 8 15 5 3-1 5-1 2-4 8-10h4v-2l6-3 7-6h3l1-3 9-6 2-3 9-7 6-5h2v-2h2v-2l7-6 2-4 5-1v-2l4-1v-3l5-5 4-1 8-6 5-1 1-3 7-6h2l1-3h3v-2l6-1v-2l6-5h2v-2l8-7 10-8h2v-2l4-1 2-4 11-8 8-7 10-10 6-10v-8-2l-1-3-5-5-5-10-6-5-4-4-10-8v-2l-5-2-8-4-10-4-14-5v-2l-4-1-9-4v-2h-2l-1-3-5-2z" fill="#863538"/>
<path transform="translate(1369,1434)" d="m0 0h44l12 3 10 6 8 9 7 13 2 8v20l-3 12-5 10-9 10-8 5-13 4-19 2h-27l-2-1v-99zm16 13-2 1v73l5 1h20l9-3 8-6 7-9 3-7 1-5v-17l-2-8-6-10-7-6-9-4z" fill="#FDFDFD"/>
<path transform="translate(907,476)" d="m0 0h6l8 5 4 5 5 11 4 20 4 29 5 21 7 39 6 44 2 15 1 18-1 38h-2l-3-7v-9l-5 2-2-1 2 10 1 15-5 8-7 7-9 4-4 1h-7l-5-3-4-5-4-14 1-3 4 13 4 6 5 2h10l8-3 8-8 1-5-4-36-3-23-2-17-2-20-3-24-3-17-2-16-3-17-4-28-2-24-2-14-7-11z" fill="#C0BE9B"/>
<path transform="translate(1046,750)" d="m0 0h8l8 4 5 4 22 10 9 4 25 9 21 8 13 5 12 5 17 5 9 4 15 6 11 3 21 7 24 7 8 2h7l9-6 5-4 7-8 11-6h2v-3l12 2 2 1-5 3-12 6-12 22-7 10-6 4-19-5-45-18-33-12-15-6-78-29-25-9-16-8-7-8-3-6z" fill="#7F8A40"/>
<path transform="translate(1315,1434)" d="m0 0 15 1 1 1v49l-2 16-4 12-8 11-10 7-9 4-5 1h-14l-11-3-8-4-8-8-6-12-4-16v-58h15l1 1 1 58 3 13 6 8 8 5 5 1h11l8-3 5-5 5-8 2-6 1-7 1-57z" fill="#FEFEFE"/>
<path transform="translate(1065,1433)" d="m0 0h11l16 3 10 5 3 4-2 6-3 4-5-1-15-6-4-1h-12l-8 4-4 6v9l8 6 15 5 15 4 12 7 6 8 1 3v16l-4 8-8 7-11 5-4 1h-18l-12-3-18-8-3-3 2-5 5-7 19 9 8 2h16l7-4 3-4v-9l-1-4-5-2-33-11-10-6-6-8-1-3v-15l5-10 8-7 10-4z" fill="#FEFEFE"/>
<path transform="translate(888,1434)" d="m0 0h67v8l-2 4-20 1h-30v30h46v11l-1 1-45 1v30l7 1 47 1v13l-30 1h-39l-1-1v-99z" fill="#FEFEFE"/>
<path transform="translate(428,1433)" d="m0 0h7l5 3 5 12 13 33 10 26 6 16 3 10v2h-10l-5-2-10-21-2-5h-40l-1 7-4 10-6 11-8 1-7-1 6-15 5-15 15-38 10-26 6-7zm3 19-4 8-12 34v2l17 1h12l2-1-2-11-11-33z" fill="#FDFDFD"/>
<path transform="translate(542,1433)" d="m0 0h13l13 3 8 5 10 9 1 5-8 7-4-2-9-8-9-4-5-1h-7l-10 3-8 6-6 10-4 12v13l5 14 7 9 10 6 3 1h14l12-6 10-10 11 8-2 5-8 8-16 8-8 2h-13l-10-3-12-7-9-9-7-12-4-16v-10l3-14 4-9 6-8 9-8 8-4z" fill="#FEFEFE"/>
<path transform="translate(767,1434)" d="m0 0h8l7 2 4 8 6 18 6 15 9 24 4 11h2l10-25 8-21 5-15 6-16 1-1h16l-2 9-10 26-12 30-12 29-4 7-2 1h-6l-6-4-6-12-11-26-14-37-7-20z" fill="#FDFDFD"/>
<path transform="translate(1560,1433)" d="m0 0 3 1-2 6-10 18-10 17-9 16-3 7-1 10-1 25-2 2h-13l-1-1-1-33-11-23-13-23-11-19v-2h15l4 4 14 27 10 17 2 1 2-6 13-23 8-14 5-5z" fill="#FEFEFE"/>
<path transform="translate(611,1434)" d="m0 0h81l1 1-1 11-21 1h-12v87l-2 2h-10l-4-1-1-88h-32l-1-1v-10z" fill="#FDFDFD"/>
<path transform="translate(1133,1434)" d="m0 0h73l8 1 1 3-2 7-30 2-2 88h-15l-1-5-1-84h-31l-1-2v-9z" fill="#FEFEFE"/>
<path transform="translate(1032,697)" d="m0 0 2 4 5 21 4 9 6 8 3 1v2l6-1 3-3 6-16 5-4 13 1 21 6 23 8 11 5 25 9 28 11 24 10 25 10 28 11 16 7 15 6 14 4v3l-12 6-5 6h-2l-2 4-11 8-2 1h-7l-26-7-27-9-13-4-15-6-16-6-16-5-11-5-43-16-17-6-26-13-6-4-4-2h-9l-6-18-7-31zm43 24-4 4-3 11v12l2 5 7 6 17 9 19 7 16 6 22 8 29 11 19 7 17 6 22 7 20 6 12 3 7 1 8-5 11-8 1-4 4-2 2-4-8-4-22-9-12-5-26-11-20-8-19-8-15-6-68-26-10-4-12-4-5-1z" fill="#C0BE9B"/>
<path transform="translate(971,414)" d="m0 0 1 2-2 7v9l1 9 2 10 5 16 3 14 5 12 3 12 1 1 3 15 2 12h2l2 14 2 6-1 2h2l2 13 6 21 1 8 2 6 3 14 4 11 2 6 3 12 1 13h2l1 6-1 2h2l3 14-1 2h2v3l3 4 1 8 4 14 3 2 3 7 3 2 1 3h5l1-5 4-4 3-1h10l3 2-8 2-3 4-5 14-6 5-4-1v-2l-4-1-7-9-3-8-5-21v-4h-2l-6-26-8-29-4-16-4-19-8-31-11-41-7-28-8-30-11-44 1-9z" fill="#4A8FBF"/>
<path transform="translate(721,1435)" d="m0 0h17v100l-5 1-10-1-1-1-1-17z" fill="#FCFCFC"/>
<path transform="translate(859,472)" d="m0 0h7l1 15h-1l-2-8-5 1v2l-5 1-4 2-1 3-7 6-6 5-1 2h-3l-1 4-7 6-1 2h-2v2l-7 6h-2l-1 4h-2l-1 4-7 6-1 2-3 1-2 3h-2l-1 3-7 6-2 3h-2l-2 4-4 2-7 8-13 13-7 8h-2v2l-7 6-12 12h-2v2l-6 4-5 5-12 11-5 6-8 7-4 5-8 7-11 11-6 7-7 6-4 4-4 5-3 1 2-4 10-13 10-11 7-8 11-12 49-49 8-7 13-11 12-11 11-9 7-7 8-7 34-34 7-8 7-7 7-8 10-9z" fill="#E6DFC0"/>
<path transform="translate(676,362)" d="m0 0 4 1v3l-16 12-11 9-13 12-3 1v2l-8 7-20 20-9 11-11 13-22 33-11 18-13 23-15 30-17 38-10 32-2 6-1-3 8-31 8-21 12-27 19-38 14-24 16-24 12-17 11-13 8-10 11-12 18-18 11-9 9-8 16-12z" fill="#6D6F57"/>
<path transform="translate(994,819)" d="m0 0h7l36 10 11 4v1l-11 2v2l-9 2-1 2-4-1-2-4-11-4v-2l-8-2v-2l-11 2-7 3-16 9-10 7-9 6-9 7-3 3-11 9-4 2v2l-4 3h-3l-1 3-8 5h-3l1-3 16-12 13-11 14-11 10-9 13-10 11-7z" fill="#873638"/>
<path transform="translate(1315,806)" d="m0 0 12 2 2 1-5 3-12 6-12 22-7 10-6 4-5-2-1-2 1-5h-2v-3l-7-2-3-4 5-2 8-2 8-6 8-7 4-5 10-5h2z" fill="#7E893B"/>
<path transform="translate(815,889)" d="m0 0 1 4-7 7h-2l-2 4-22 22-7 8-8 8-7 8-23 23-13 10-8 4-4-1 5-5 9-6 6-5 5-1 1-3 3-1 1-3 6-5 8-11 3-2 6-7 5-5 7-8 11-11h2v-2h2v-2h2v-2l16-16z" fill="#3A7492"/>
<path transform="translate(806,965)" d="m0 0 1 3-4 6v6l6 2 2 3 4 9 5 10v4l-6 3-4 1v-2h-3l-4-16-4-4-8-4-2-4 7-8 7-7z" fill="#366F97"/>
<path transform="translate(559,490)" d="m0 0 4 1-4 8-13 23-12 22-15 33-9 21-9 29-2 6-1-3 8-31 8-21 12-27 19-38 13-22z" fill="#416786"/>
<path transform="translate(1050,751)" d="m0 0 6 2 13 8 16 8 7 5v4l-3 1-10-4v-2l-7-1-9-1-8-5-6-7-2-6z" fill="#357399"/>
<path transform="translate(870,1048)" d="m0 0h8l4 2 12 2 5 2h7l7 3 12 3 9 3 3 2 8 1 2 1 4 1 7 2 8 1v2l7 1 1 3 5 1 3 2h-7l-13-4-5-1-8-3-9-3-8-2-7-2-7-1-3-2-10-2-9-3-16-4-9-3z" fill="#A22527"/>
<path transform="translate(859,472)" d="m0 0h7l1 15h-1l-2-8-5 1v2l-5 1-4 2-1 3-7 6-6 5-1 2h-3l-1 4-7 6-1 2h-2v2l-7 6-2-1 4-6 8-8 7-8 7-7 7-8 10-9z" fill="#C6C3A2"/>
<path transform="translate(876,908)" d="m0 0 2 1-19 19-10 7h-2v2l-5 1v2l-4 1v2l-8 6h-3v2h-2v2l-5 3-1 2-3 1-1 3-5 2v2l-3-1 6-7 11-10 11-9 18-14 14-10z" fill="#8A3939"/>
<path transform="translate(1312,814)" d="m0 0h3v2l-5 5-11 21-7 9-6 3-1-5 2-5v-4l-5-1 1-2h8l6-2 6-12h2l1-4z" fill="#367297"/>
<path transform="translate(1114,789)" d="m0 0h5l4 2 4-2 1 2h3l2-2 7 3 10 2 9 6 1 5-9-1-35-13z" fill="#B55746"/>
<path transform="translate(1235,474)" d="m0 0 6 2 4 3 6 19 8 36 5 19-1 4-4-12-5-17-4-15-5-18-2-9-4-8z" fill="#C0BE9C"/>
<path transform="translate(1317,812)" d="m0 0h3v2l-10 2-4 4-1 3-2 1-6 12-7 2h-7l4 2 1 6-2 5v2l-4-1-1-2 1-5h-2v-3l-7-2-3-4 5-1h9l8-1 6-7 2-5 4-4h2v-2l5-3z" fill="#D14038"/>
<path transform="translate(753,580)" d="m0 0v3l-5 5h-2v2l-7 6-12 12h-2v2l-6 4-5 5-12 11-5 6-8 7-4 5-8 7-11 11-2 3-2-1 9-11 7-6 36-36 8-7h2l2-4h2v-2l7-6h2l2-4 8-7z" fill="#C0BE9B"/>
<path transform="translate(591,443)" d="m0 0v3 3l-2 4-22 33-3 5-5-1 7-12 16-23z" fill="#5A6B67"/>
<path transform="translate(973,466)" d="m0 0 2 3 12 42 6 23 6 22 4 18v5l-2-3-11-41-7-28-8-30-2-7z" fill="#D6DAD0"/>
<path transform="translate(1133,735)" d="m0 0 6 1 16 6 22 8 18 7 15 6 24 10 14 6 1 2-10-3-27-11-19-8-31-12-22-8-7-3z" fill="#7E893B"/>
<path transform="translate(953,636)" d="m0 0h1l4 29 1 18-1 20h-1l-2-14-1-5-2-30z" fill="#E6DDB8"/>
<path transform="translate(1473,619)" d="m0 0 4 5 3 6 7 29 4 20v7h-1l-5-21-5-15-7-28z" fill="#4B6A81"/>
<path transform="translate(692,986)" d="m0 0h15l3 2-2 2-10 2h-21l-6-3v-2z" fill="#367397"/>
<path transform="translate(518,572)" d="m0 0 1 4-7 17-8 24-5 16-1-3 8-31 8-21 2-5z" fill="#3A738F"/>
<path transform="translate(676,362)" d="m0 0 4 1v3l-16 12-11 9-4 2 6-7 3-3v-3l14-11z" fill="#396D8F"/>
<path transform="translate(837,937)" d="m0 0h3l-2 6-8 6h-3v2h-2v2l-5 3-1 2-3 1-1 3-5 2v2l-3-1 6-7 11-10 11-9z" fill="#3C6E93"/>
<path transform="translate(608,423)" d="m0 0h3l-1 5-18 21-3-1 6-10 12-14z" fill="#6E7567"/>
<path transform="translate(1106,779)" d="m0 0 5 1 4 2 2 3 8 1 7 3-1 3-7-1-2 1-3-2-7-2-5-3-1-5z" fill="#346E99"/>
<path transform="translate(1317,812)" d="m0 0h3v2l-10 2-4 4-1 3-2 1-6 12-7 2-6-1 1-2 7-1 6-7 2-5 4-4h2v-2l5-3z" fill="#CD4338"/>
<path transform="translate(1242,1046)" d="m0 0 2 1-9 7-13 10h-2l-1 3-5 3h-2l1-4 5-1v-2l4-1v-3l5-5 4-1 8-6z" fill="#A22527"/>
<path transform="translate(1013,620)" d="m0 0 2 4 6 19 2 9v7l-2-3-7-25z" fill="#E2E6E3"/>
<path transform="translate(1067,770)" d="m0 0 12 3v2l9 2 2 4-18-6-7-3z" fill="#8B934D"/>
<path transform="translate(828,945)" d="m0 0m-1 1m-1 1m-2 1 2 1-7 9-3 1-1 3-5 2v2l-3-1 6-7z" fill="#4F6D8B"/>
<path transform="translate(1317,812)" d="m0 0h3v2l-10 2-4 4-1 3-2 1-1 3h-3l1-5 4-4h2v-2l5-3z" fill="#CF453B"/>
<path transform="translate(987,396)" d="m0 0 2 1v3l-6 4h-3v4l-8 6 2-5 10-11z" fill="#4A8CBA"/>
<path transform="translate(830,961)" d="m0 0v3h-2l-1 4v4 10l-2-1-3-12 3-5z" fill="#7E893B"/>
<path transform="translate(591,443)" d="m0 0v3 3l-2 4-4 6-2-1h-2l2-5z" fill="#567274"/>
<path transform="translate(1326,794)" d="m0 0 2 2 2 11-3 2h-3l-1-3 2-7z" fill="#3777A2"/>
<path transform="translate(1151,796)" d="m0 0 4 1 5 4v4h-6l1-4h-2z" fill="#D13F38"/>
<path transform="translate(773,559)" d="m0 0v3l-18 18v-3l10-10 4-5z" fill="#C0BE9B"/>
<path transform="translate(583,456)" d="m0 0 1 4-6 9-2-3 2-5z" fill="#606C60"/>
<path transform="translate(1496,732)" d="m0 0 2 4 1 14v15h-1l-2-27z" fill="#BEBE9B"/>
<path transform="translate(504,606)" d="m0 0 2 3-3 12-4 12-1-3z" fill="#979D5F"/>
<path transform="translate(1487,664)" d="m0 0 2 4 2 11v7h-1l-4-17z" fill="#A2A670"/>
<path transform="translate(1473,613)" d="m0 0 3 1 3 13-2 1-3-7-2-5z" fill="#6E4B50"/>
<path transform="translate(1018,642)" d="m0 0 3 1 2 9v7l-2-3-3-10z" fill="#E8EBEA"/>
<path transform="translate(523,563)" d="m0 0 2 1-6 12-2-3 2-6 4-2z" fill="#4E6276"/>
<path transform="translate(807,525)" d="m0 0 1 4-7 6-1 2-4 1 2-4 5-4z" fill="#C0BE9B"/>
<path transform="translate(1148,796)" d="m0 0h3l2 5h2v3h-4l-4-7z" fill="#387099"/>
<path transform="translate(565,480)" d="m0 0 1 4-2 7-5-1z" fill="#517072"/>
<path transform="translate(788,544)" d="m0 0 2 1-7 8h-2l-2 4-3-1z" fill="#C0BE9B"/>
<path transform="translate(926,520)" d="m0 0h3l1 3h-2v7l-2 1-2-5 1-5z" fill="#A1B357"/>
<path transform="translate(1255,1034)" d="m0 0 3 1-4 4h-2v2l-6 5h-2l1-3 7-6h2z" fill="#A22527"/>
<path transform="translate(1175,805)" d="m0 0 5 2 3 3-1 4-4-1 3-1-3-3-2-1-1 3-1-5z" fill="#CF443B"/>
<path transform="translate(509,595)" d="m0 0 1 3-4 11h-1l1-10z" fill="#3E748A"/>
<path transform="translate(989,528)" d="m0 0h2l3 9v5l-2 1z" fill="#E2E7E6"/>
<path transform="translate(596,440)" d="m0 0 2 2-6 7-3-1 3-5z" fill="#757B5F"/>
<path transform="translate(600,435)" d="m0 0 1 4-4 2-5 2 4-6z" fill="#677F69"/>
<path transform="translate(1473,619)" d="m0 0 4 5 2 5-2 2-2-1z" fill="#3B6A8D"/>
<path transform="translate(612,418)" d="m0 0h2v2l2 2-5 4v-3h-2l2-4z" fill="#686156"/>
<path transform="translate(897,809)" d="m0 0 3 1-7 7-2-1v-2h2l2-4z" fill="#A1B357"/>
<path transform="translate(1494,706)" d="m0 0h1v6h-1z" fill="#DDE3E2"/>
<path transform="translate(1493,699)" d="m0 0" fill="#DDE3E2"/>
<path transform="translate(1491,687)" d="m0 0" fill="#DDE3E2"/>
<path transform="translate(1495,715)" d="m0 0" fill="#DDE3E2"/>
<path transform="translate(1492,693)" d="m0 0" fill="#DDE3E2"/>
<path transform="translate(1495,718)" d="m0 0" fill="#DDE3E2"/>
</svg>
